<?xml version="1.0" encoding="iso-8859-1"?>
<!-- Generator: Adobe Illustrator 19.0.0, SVG Export Plug-In . SVG Version: 6.00 Build 0)  -->
<svg version="1.1" id="Layer_1" xmlns="http://www.w3.org/2000/svg" xmlns:xlink="http://www.w3.org/1999/xlink" x="0px" y="0px"
	 viewBox="0 0 341.848 341.848" style="enable-background:new 0 0 341.848 341.848;" xml:space="preserve">
<g id="XMLID_1446_">
	<path id="XMLID_584_" style="fill:#FFA250;" d="M170.924,341.848L170.924,341.848c-14.775,0-26.863-12.088-26.863-26.863V211.846
		c0-14.775,12.088-26.863,26.863-26.863l0,0c14.775,0,26.863,12.088,26.863,26.863v103.139
		C197.788,329.76,185.699,341.848,170.924,341.848z"/>
	<path id="XMLID_1447_" style="fill:#FFE165;" d="M186.418,0H140.97c1.227,4.359,1.897,8.951,1.897,13.702
		c0,27.891-22.609,50.5-50.5,50.5c-3.677,0-7.258-0.403-10.712-1.15v163.732c0,15.03,12.185,27.215,27.215,27.215h124.107
		c15.03,0,27.215-12.185,27.215-27.215V73.774C260.193,33.03,227.163,0,186.418,0z"/>
	<path id="XMLID_1448_" style="fill:#FF5959;" d="M260.193,143.436V73.774C260.193,33.03,227.163,0,186.418,0H140.97
		c1.227,4.358,1.897,8.951,1.897,13.701c0,27.891-22.609,50.5-50.5,50.5c-3.677,0-7.258-0.403-10.712-1.149v80.383L260.193,143.436
		L260.193,143.436z"/>
	<g id="XMLID_1449_">
		<path id="XMLID_1450_" style="fill:#FF5959;" d="M207.174,122.218c-0.105,0.814-0.166,1.642-0.166,2.483v56.274
			c0,10.652,8.715,19.367,19.367,19.367l0,0c10.652,0,19.367-8.715,19.367-19.367v-56.274c0-0.842-0.06-1.669-0.166-2.483H207.174z"
			/>
		<path id="XMLID_1451_" style="fill:#FF5959;" d="M169.619,122.218v29.326c0,10.652,8.715,19.367,19.367,19.367l0,0
			c10.652,0,19.367-8.715,19.367-19.367v-29.326H169.619z"/>
	</g>
</g>
<g>
</g>
<g>
</g>
<g>
</g>
<g>
</g>
<g>
</g>
<g>
</g>
<g>
</g>
<g>
</g>
<g>
</g>
<g>
</g>
<g>
</g>
<g>
</g>
<g>
</g>
<g>
</g>
<g>
</g>
</svg>
